# xmcd
#
# Track frame offsets:
#	150
#	22477
#	43023
#	57603
#	76104
#	93874
#	111510
#	131217
#	150636
#	173014
#	193517
#	208102
#	226627
#	244384
#	262019
#	281724
#	312589
#
# Disc length: 4180 seconds
#
# Revision: 1
# Processed by: cddbd v1.5.2PL0 Copyright (c) Steve Scherf et al.
# Submitted via: audiograbber 1.83.01
#
DISCID=fb105211
DTITLE=Sound Choice - SC3392
DYEAR=1900
DGENRE=
TTITLE0=McGraw, Tim - Watch The Wind Blow By
TTITLE1=Chesney, Kenny - There Goes My Life
TTITLE2=Blue Country - Good Little Girls
TTITLE3=Black, Clint - Spend My Time
TTITLE4=Howard, Rebecca Lynn - I Need A Vacation
TTITLE5=Loveless, Patty - On Your Way Home
TTITLE6=Worley, Darryl - I Will Hold My Ground
TTITLE7=Wilkinson, Amanda - Gone From Love Too Long
TTITLE8=McGraw, Tim - Watch The Wind Blow By
TTITLE9=Chesney, Kenny - There Goes My Life
TTITLE10=Blue Country - Good Little Girls
TTITLE11=Black, Clint - Spend My Time
TTITLE12=Howard, Rebecca Lynn - I Need A Vacation
TTITLE13=Loveless, Patty - On Your Way Home
TTITLE14=Worley, Darryl - I Will Hold My Ground
TTITLE15=Wilkinson, Amanda - Gone From Love Too Long
TTITLE16=xx - Data Track
EXTD=
EXTT0=
EXTT1=
EXTT2=
EXTT3=
EXTT4=
EXTT5=
EXTT6=
EXTT7=
EXTT8=
EXTT9=
EXTT10=
EXTT11=
EXTT12=
EXTT13=
EXTT14=
EXTT15=
EXTT16=
PLAYORDER=
